HIERARCHY
ROOT Hips
{
  OFFSET 5.84602e-005 68.8428 3.50346
  CHANNELS 6 Xposition Yposition Zposition Zrotation Xrotation Yrotation
  JOINT Spine
  {
    OFFSET 0 8.597 -4.6522
    CHANNELS 3 Zrotation Xrotation Yrotation
    JOINT Spine1
    {
      OFFSET 0 7.8454 0.4098
      CHANNELS 3 Zrotation Xrotation Yrotation
      JOINT Spine2
      {
        OFFSET 0 9.7078 -2.1609
        CHANNELS 3 Zrotation Xrotation Yrotation
        JOINT Neck
        {
          OFFSET 0 21.8761 -0.4549
          CHANNELS 3 Zrotation Xrotation Yrotation
          JOINT Head
          {
            OFFSET 0 12.3537 3.3602
            CHANNELS 3 Zrotation Xrotation Yrotation
            End Site
            {
              OFFSET 0.0001 18.9506 0.5657
            }
          }
        }
        JOINT LeftShoulder
        {
          OFFSET 2.2086 21.1115 7.2329
          CHANNELS 3 Zrotation Xrotation Yrotation
          JOINT LeftArm
          {
            OFFSET 13.1193 3.0282 -4.8998
            CHANNELS 3 Zrotation Xrotation Yrotation
            JOINT LeftForeArm
            {
              OFFSET 27.4081 -0.0973053 -0.2375
              CHANNELS 3 Zrotation Xrotation Yrotation
              JOINT LeftHand
              {
                OFFSET 22.8641 0.0662994 -0.1369
                CHANNELS 3 Zrotation Xrotation Yrotation
                JOINT LeftHandIndex1
                {
                  OFFSET 8.8614 0.775009 2.4612
                  CHANNELS 3 Zrotation Xrotation Yrotation
                  JOINT LeftHandIndex2
                  {
                    OFFSET 3.3146 -0.808304 0.5841
                    CHANNELS 3 Zrotation Xrotation Yrotation
                    JOINT LeftHandIndex3
                    {
                      OFFSET 2.2628 -0.552002 0.3989
                      CHANNELS 3 Zrotation Xrotation Yrotation
                      End Site
                      {
                        OFFSET 1.6102 -0.4807 0.2612
                      }
                    }
                  }
                }
                JOINT LeftHandMiddle1
                {
                  OFFSET 8.9937 0.895004 0.2143
                  CHANNELS 3 Zrotation Xrotation Yrotation
                  JOINT LeftHandMiddle2
                  {
                    OFFSET 4.0984 0.0113983 -0.0242
                    CHANNELS 3 Zrotation Xrotation Yrotation
                    JOINT LeftHandMiddle3
                    {
                      OFFSET 2.2716 0.00689697 -0.0138001
                      CHANNELS 3 Zrotation Xrotation Yrotation
                      End Site
                      {
                        OFFSET 2.0404 -0.1441 0.0027
                      }
                    }
                  }
                }
                JOINT LeftHandRing1
                {
                  OFFSET 8.5234 0.597198 -2.0164
                  CHANNELS 3 Zrotation Xrotation Yrotation
                  JOINT LeftHandRing2
                  {
                    OFFSET 3.7188 -0.188293 -0.2328
                    CHANNELS 3 Zrotation Xrotation Yrotation
                    JOINT LeftHandRing3
                    {
                      OFFSET 2.1191 -0.106598 -0.1332
                      CHANNELS 3 Zrotation Xrotation Yrotation
                      End Site
                      {
                        OFFSET 1.8737 -0.2304 -0.0886
                      }
                    }
                  }
                }
                JOINT LeftHandPinky1
                {
                  OFFSET 7.9094 -0.601089 -3.4825
                  CHANNELS 3 Zrotation Xrotation Yrotation
                  JOINT LeftHandPinky2
                  {
                    OFFSET 2.2874 -0.477005 -0.6314
                    CHANNELS 3 Zrotation Xrotation Yrotation
                    JOINT LeftHandPinky3
                    {
                      OFFSET 1.6774 -0.349396 -0.4633
                      CHANNELS 3 Zrotation Xrotation Yrotation
                      End Site
                      {
                        OFFSET 1.4888 -0.4091 -0.3416
                      }
                    }
                  }
                }
                JOINT LeftHandThumb1
                {
                  OFFSET 1.833 -1.3875 1.3896
                  CHANNELS 3 Zrotation Xrotation Yrotation
                  JOINT LeftHandThumb2
                  {
                    OFFSET 3.4129 -1.121 2.5732
                    CHANNELS 3 Zrotation Xrotation Yrotation
                    JOINT LeftHandThumb3
                    {
                      OFFSET 2.2474 -0.804199 1.6192
                      CHANNELS 3 Zrotation Xrotation Yrotation
                      End Site
                      {
                        OFFSET 1.6527 -0.5689 1.1317
                      }
                    }
                  }
                }
              }
            }
          }
        }
        JOINT RightShoulder
        {
          OFFSET -2.2086 21.1115 7.2329
          CHANNELS 3 Zrotation Xrotation Yrotation
          JOINT RightArm
          {
            OFFSET -13.1216 3.0287 -4.9007
            CHANNELS 3 Zrotation Xrotation Yrotation
            JOINT RightForeArm
            {
              OFFSET -27.4081 -0.0973053 -0.2375
              CHANNELS 3 Zrotation Xrotation Yrotation
              JOINT RightHand
              {
                OFFSET -22.8641 0.0664063 -0.1369
                CHANNELS 3 Zrotation Xrotation Yrotation
                JOINT RightHandIndex1
                {
                  OFFSET -8.8614 0.774994 2.4612
                  CHANNELS 3 Zrotation Xrotation Yrotation
                  JOINT RightHandIndex2
                  {
                    OFFSET -3.3146 -0.808304 0.5841
                    CHANNELS 3 Zrotation Xrotation Yrotation
                    JOINT RightHandIndex3
                    {
                      OFFSET -2.2628 -0.552002 0.3989
                      CHANNELS 3 Zrotation Xrotation Yrotation
                      End Site
                      {
                        OFFSET -1.6102 -0.4807 0.2612
                      }
                    }
                  }
                }
                JOINT RightHandMiddle1
                {
                  OFFSET -8.9937 0.894989 0.2143
                  CHANNELS 3 Zrotation Xrotation Yrotation
                  JOINT RightHandMiddle2
                  {
                    OFFSET -4.0984 0.0113983 -0.0242
                    CHANNELS 3 Zrotation Xrotation Yrotation
                    JOINT RightHandMiddle3
                    {
                      OFFSET -2.2716 0.00691223 -0.0138001
                      CHANNELS 3 Zrotation Xrotation Yrotation
                      End Site
                      {
                        OFFSET -2.0404 -0.1441 0.0027
                      }
                    }
                  }
                }
                JOINT RightHandRing1
                {
                  OFFSET -8.5234 0.597198 -2.0164
                  CHANNELS 3 Zrotation Xrotation Yrotation
                  JOINT RightHandRing2
                  {
                    OFFSET -3.7188 -0.188309 -0.2328
                    CHANNELS 3 Zrotation Xrotation Yrotation
                    JOINT RightHandRing3
                    {
                      OFFSET -2.1191 -0.106598 -0.1332
                      CHANNELS 3 Zrotation Xrotation Yrotation
                      End Site
                      {
                        OFFSET -1.8737 -0.2304 -0.0886
                      }
                    }
                  }
                }
                JOINT RightHandPinky1
                {
                  OFFSET -7.9094 -0.601105 -3.4825
                  CHANNELS 3 Zrotation Xrotation Yrotation
                  JOINT RightHandPinky2
                  {
                    OFFSET -2.2874 -0.477005 -0.6314
                    CHANNELS 3 Zrotation Xrotation Yrotation
                    JOINT RightHandPinky3
                    {
                      OFFSET -1.6774 -0.349396 -0.4633
                      CHANNELS 3 Zrotation Xrotation Yrotation
                      End Site
                      {
                        OFFSET -1.4888 -0.4091 -0.3416
                      }
                    }
                  }
                }
                JOINT RightHandThumb1
                {
                  OFFSET -1.833 -1.38751 1.3896
                  CHANNELS 3 Zrotation Xrotation Yrotation
                  JOINT RightHandThumb2
                  {
                    OFFSET -3.41299 -1.12099 2.5732
                    CHANNELS 3 Zrotation Xrotation Yrotation
                    JOINT RightHandThumb3
                    {
                      OFFSET -2.24741 -0.804108 1.6192
                      CHANNELS 3 Zrotation Xrotation Yrotation
                      End Site
                      {
                        OFFSET -1.6527 -0.5689 1.1317
                      }
                    }
                  }
                }
              }
            }
          }
        }
      }
    }
  }
  JOINT RightUpLeg
  {
    OFFSET -9.1966 3.8861 -0.7581
    CHANNELS 3 Zrotation Xrotation Yrotation
    JOINT RightLeg
    {
      OFFSET -0.7359 -41.0265 0
      CHANNELS 3 Zrotation Xrotation Yrotation
      JOINT RightFoot
      {
        OFFSET 0 -40.2855 0
        CHANNELS 3 Zrotation Xrotation Yrotation
        JOINT RightToeBase
        {
          OFFSET 0 -5.6122 11.7359
          CHANNELS 3 Zrotation Xrotation Yrotation
          End Site
          {
            OFFSET 0 0 7.8731
          }
        }
      }
    }
  }
  JOINT LeftUpLeg
  {
    OFFSET 9.1965 3.8864 -0.7581
    CHANNELS 3 Zrotation Xrotation Yrotation
    JOINT LeftLeg
    {
      OFFSET 0.7359 -41.0268 0
      CHANNELS 3 Zrotation Xrotation Yrotation
      JOINT LeftFoot
      {
        OFFSET 0 -40.2855 0
        CHANNELS 3 Zrotation Xrotation Yrotation
        JOINT LeftToeBase
        {
          OFFSET 0 -5.6122 11.7359
          CHANNELS 3 Zrotation Xrotation Yrotation
          End Site
          {
            OFFSET 0 0 7.8731
          }
        }
      }
    }
  }
}
MOTION
Frames:	4
Frame Time:	0.0333333
5.84602e-005 68.8428 3.50346 0 0 -0 0 0 -0 0 0 -0 0 0 -0 0 0 -0 0 0 -0 0 0 -0 0 0 -0 0 0 -0 0 0 -0 0 0 -0 0 0 -0 0 0 -0 0 0 -0 -0.0146107 -8.87603e-005 -2.63497e-007 2.99804e-018 -2.42657e-020 -1.42182e-022 0 0 -0 -0.0187562 -0.001176 5.858e-005 5.06224e-018 3.88251e-019 1.21329e-020 0 0 -0 -0.012269 -0.00324817 0.000675346 -1.74678e-018 3.88251e-019 -0 0 0 -0 0 0 -0 0 0 -0 0 0 -0 0 0 -0 0 0 -0 0 0 -0 0 0 -0 0 0 -0 0 0 -0 0 0 -0 0.0149955 -9.10982e-005 2.64101e-007 -9.69331e-018 1.21329e-020 -4.7394e-023 0 0 -0 0.0189956 -0.00119102 -5.96516e-005 -5.41541e-019 0 2.42657e-020 0 0 -0 0.0122698 -0.00324857 -0.000673756 -2.00796e-019 0 -1.94126e-019 0 0 -0 0 0 -0 0 0 -0 3.39842 1.33031 -0.0637918 -5.65207e-008 0.834868 -0.000436188 -3.39935 -2.16518 -0.0642563 -8.89002e-024 -1.18485e-023 -1.48106e-024 -3.39844 1.35642 0.0640283 -3.18788e-007 0.782166 -0.000588827 3.39931 -2.13858 0.0634662 1.1399e-023 0 -0 
-0.0848965 79.6014 5.81784 -180 -82.9837 -180 -0.0212626 3.80204 -0.109886 -0.0353156 7.6041 -0.21908 -0.0353157 7.6041 -0.21908 1.93366e-006 17.9985 -1.47266e-006 5.33713e-008 8.99857 4.45333e-008 -9.63568 34.7484 1.4902 -70.3828 -4.67765 -64.3642 -26.5012 -22.4712 -30.6903 -12.6426 29.9717 -5.2964 -1.60049e-006 -3.70545e-007 -8.47481e-007 -2.16649e-006 3.91823e-007 4.3438e-007 -2.38542e-015 1.59028e-015 6.36111e-015 -1.60049e-006 -3.70545e-007 -8.47481e-007 -0.014559 -8.90412e-005 -3.02653e-006 8.82781e-032 -1.59028e-015 3.18055e-015 -1.60049e-006 -3.70545e-007 -8.47481e-007 -0.0186947 -0.00117204 6.04014e-005 3.18055e-015 0 -3.18055e-015 -1.60049e-006 -3.70545e-007 -8.47481e-007 -0.0122666 -0.00325172 0.000675375 -1.59028e-015 1.59028e-015 -0 -1.60049e-006 -3.70545e-007 -8.47481e-007 -2.16649e-006 3.91823e-007 4.3438e-007 -2.38542e-015 1.59028e-015 6.36111e-015 -35.6791 -0.447078 -12.7723 80.6668 -6.00416 -47.5291 -50.8183 44.8135 106.84 11.3977 10.4044 -11.1627 -1.98785e-015 -7.95139e-016 -1.59028e-015 7.95139e-016 1.88845e-015 -0 -7.95139e-016 -1.2424e-015 -1.59028e-015 -1.98785e-015 -7.95139e-016 -1.59028e-015 0.0149439 -9.16342e-005 -4.86933e-006 1.58488e-007 1.3936e-007 9.28815e-007 -1.98785e-015 -7.95139e-016 -1.59028e-015 0.0189354 -0.00118893 -5.01918e-005 3.97569e-016 1.26725e-014 4.77083e-015 -1.98785e-015 -7.95139e-016 -1.59028e-015 0.0123238 -0.00326 -0.000676459 3.97569e-016 1.44119e-015 -0 -1.98785e-015 -7.95139e-016 -1.59028e-015 7.95139e-016 1.88845e-015 -0 -7.95139e-016 -1.2424e-015 -1.59028e-015 -9.05082 -9.02053 -7.84707 4.10018 45.3446 -4.65423 -12.3129 14.0387 5.16438 -5.86531e-007 -6.68687e-008 2.47433e-007 15.7085 5.41076 1.28608 -0.383848 14.5056 0.641955 8.95014 9.25281 -0.76617 -2.0852e-006 4.51328e-007 1.39071e-006 
-0.0850435 79.3762 5.79457 -180 -83.4841 -180 -0.0227982 3.877 -0.110315 -0.0382264 7.754 -0.219838 -0.0382264 7.75405 -0.219839 -0.0504933 17.7457 -0.00440898 0.0121871 8.93914 -0.0741346 -9.41333 34.0898 1.36367 -70.3829 -4.67763 -64.3643 -26.6665 -22.3911 -30.8608 -12.6426 29.9717 -5.2964 -0 -1.59028e-015 -0 2.38542e-015 1.59028e-015 -0 1.59028e-015 -3.18055e-015 -0 -0 -1.59028e-015 -0 -0.0145724 -8.71903e-005 -7.72814e-007 -8.82781e-032 -1.59028e-015 -3.18055e-015 -0 -1.59028e-015 -0 -0.0188114 -0.00118036 5.75052e-005 7.95139e-016 -4.77083e-015 -0 -0 -1.59028e-015 -0 -0.0122818 -0.00325075 0.000677825 -3.97569e-015 1.59028e-015 -0 -0 -1.59028e-015 -0 2.38542e-015 1.59028e-015 -0 1.59028e-015 -3.18055e-015 -0 -34.1276 -0.127021 -12.5789 80.7621 -5.76078 -46.6353 -49.0978 43.2 104.553 11.785 11.3172 -10.9533 -2.47858e-006 -3.35911e-007 -3.24721e-007 -2.3257e-006 -2.28521e-007 6.08272e-007 -2.3257e-006 -2.28521e-007 6.08272e-007 -2.47858e-006 -3.35911e-007 -3.24721e-007 0.0150663 -9.02815e-005 2.39366e-006 -2.32569e-006 -2.28441e-007 6.08303e-007 -2.47858e-006 -3.35911e-007 -3.24721e-007 0.0189701 -0.00119053 -5.72191e-005 -2.32569e-006 -2.28422e-007 6.08334e-007 -2.47858e-006 -3.35911e-007 -3.24721e-007 0.0122538 -0.00324413 -0.000680636 -2.32568e-006 -2.2847e-007 6.08362e-007 -2.47858e-006 -3.35911e-007 -3.24721e-007 -2.3257e-006 -2.28521e-007 6.08272e-007 -2.3257e-006 -2.28521e-007 6.08272e-007 -9.02276 -9.63989 -7.79332 4.10244 45.3583 -4.6626 -12.2665 14.2457 5.06363 -1.9557e-007 -2.23057e-008 8.23302e-008 15.7089 4.87534 1.29227 -0.383856 14.5139 0.65031 8.96161 9.49343 -0.674124 2.59822e-006 5.26423e-006 -1.65439e-006 
-0.0851935 79.1507 5.7708 -180 -83.9846 -180 -0.0243305 3.9521 -0.110757 -0.0411289 7.90425 -0.220617 -0.041129 7.90423 -0.220617 -0.100985 17.493 -0.00904808 0.0242971 8.8797 -0.148261 -9.1943 33.4303 1.2411 -70.3829 -4.67763 -64.3643 -26.8314 -22.3105 -31.0309 -12.6426 29.9717 -5.2964 -4.77083e-015 0 3.18055e-015 1.76556e-031 3.18055e-015 -3.18055e-015 1.59028e-015 3.18055e-015 3.18055e-015 -4.77083e-015 0 3.18055e-015 -0.0145769 -8.74087e-005 -9.66073e-007 -0 -7.95139e-015 -0 -4.77083e-015 0 3.18055e-015 -0.0187804 -0.00117836 6.5254e-005 -1.59028e-015 0 3.18055e-015 -4.77083e-015 0 3.18055e-015 -0.0122668 -0.00325296 0.000672225 4.77083e-015 -3.18055e-015 9.54166e-015 -4.77083e-015 0 3.18055e-015 1.76556e-031 3.18055e-015 -3.18055e-015 1.59028e-015 3.18055e-015 3.18055e-015 -32.5723 0.199185 -12.3936 80.8536 -5.51573 -45.7412 -47.502 41.5321 102.38 12.1707 12.2326 -10.7491 -1.19271e-015 3.42904e-015 -6.36111e-015 9.93923e-016 0 -4.77083e-015 -1.59028e-015 9.93923e-017 -1.59028e-015 -1.19271e-015 3.42904e-015 -6.36111e-015 0.0150191 -8.88176e-005 2.65121e-006 3.97569e-016 9.93923e-016 -0 -1.19271e-015 3.42904e-015 -6.36111e-015 0.0189777 -0.00118928 -6.33819e-005 1.98785e-016 -3.42904e-015 -0 -1.19271e-015 3.42904e-015 -6.36111e-015 0.0123474 -0.00326739 -0.000682044 -2.38542e-015 2.33572e-015 3.18055e-015 -1.19271e-015 3.42904e-015 -6.36111e-015 9.93923e-016 0 -4.77083e-015 -1.59028e-015 9.93923e-017 -1.59028e-015 -8.99401 -10.2601 -7.73911 4.10468 45.3728 -4.67104 -12.2196 14.4524 4.96257 -5.02839e-007 -4.97673e-007 -7.80819e-007 15.7094 4.3395 1.29846 -0.383879 14.5227 0.658658 8.97268 9.73388 -0.582031 -8.44617e-007 2.48655e-006 2.32362e-006 
